<svg width="18" height="16" viewBox="0 0 18 16" fill="none" xmlns="http://www.w3.org/2000/svg">
<path d="M8.99785 15.8608C8.35766 15.8038 7.74821 15.5604 7.24485 15.1608C6.57904 14.6918 5.94836 14.1747 5.35785 13.6138C4.23385 12.5718 2.89785 11.1708 1.38285 9.4478C0.453052 8.35816 -0.0386153 6.96186 0.00333361 5.53006C0.0452825 4.09825 0.617854 2.73313 1.60985 1.6998C2.55158 0.695049 3.84309 0.0901579 5.21784 0.00995774C6.5926 -0.0702424 7.94568 0.380369 8.99785 1.2688C10.0502 0.380436 11.4031 -0.0704766 12.778 0.00896382C14.1528 0.0884042 15.4449 0.692146 16.3879 1.6958C17.3812 2.7294 17.9547 4.09555 17.9966 5.52852C18.0386 6.96149 17.5461 8.35884 16.6149 9.4488C15.1009 11.1708 13.7639 12.5728 12.6399 13.6148C12.0496 14.1746 11.4192 14.6907 10.7539 15.1588C10.2499 15.5597 9.6393 15.8038 8.99785 15.8608ZM5.53185 1.5998C4.99985 1.5998 4.47346 1.70846 3.98493 1.9191C3.49641 2.12975 3.05605 2.43794 2.69085 2.8248C1.9778 3.56146 1.56424 4.53701 1.5306 5.5617C1.49696 6.58638 1.84565 7.58695 2.50885 8.3688C3.98985 10.0538 5.28985 11.4168 6.37285 12.4188C6.90474 12.9262 7.47292 13.3941 8.07285 13.8188C8.34373 14.0349 8.65993 14.187 8.99785 14.2638C9.33551 14.1866 9.65136 14.0341 9.92185 13.8178C10.5218 13.3931 11.09 12.9252 11.6219 12.4178C12.7049 11.4178 14.0049 10.0528 15.4859 8.3678C16.1488 7.58586 16.4974 6.58533 16.4638 5.56071C16.4301 4.53608 16.0167 3.56057 15.3039 2.8238C14.6215 2.09632 13.6859 1.65857 12.6902 1.60088C11.6945 1.5432 10.7146 1.86998 9.95285 2.5138L8.99785 3.3148L8.04085 2.5148C7.33745 1.92612 6.45009 1.60238 5.53285 1.5998H5.53185Z" fill="#27AE60"/>
</svg>
