<svg width="17" height="18" viewBox="0 0 17 18" fill="none" xmlns="http://www.w3.org/2000/svg">
<path opacity="0.6" d="M8.45 18.0009C8.06566 18.0002 7.68757 17.9036 7.35 17.7199L0.872001 14.1889C0.628988 14.057 0.426081 13.8619 0.28469 13.6243C0.143298 13.3867 0.0686646 13.1154 0.0686646 12.8389C0.0686646 12.5624 0.143298 12.291 0.28469 12.0534C0.426081 11.8158 0.628988 11.6207 0.872001 11.4889L1.92 10.9169L0.872001 10.3489C0.628988 10.217 0.426081 10.0219 0.28469 9.78433C0.143298 9.54672 0.0686646 9.27536 0.0686646 8.99886C0.0686646 8.72237 0.143298 8.451 0.28469 8.21339C0.426081 7.97579 0.628988 7.78075 0.872001 7.64886L1.92 7.08086L0.872001 6.50986C0.628988 6.37798 0.426081 6.18294 0.28469 5.94533C0.143298 5.70773 0.0686646 5.43636 0.0686646 5.15986C0.0686646 4.88337 0.143298 4.612 0.28469 4.37439C0.426081 4.13679 0.628988 3.94175 0.872001 3.80986L7.347 0.282863C7.68537 0.0978308 8.06484 0.000854492 8.4505 0.000854492C8.83616 0.000854492 9.21563 0.0978308 9.554 0.282863L16.028 3.81386C16.271 3.94575 16.4739 4.14079 16.6153 4.37839C16.7567 4.616 16.8313 4.88737 16.8313 5.16386C16.8313 5.44036 16.7567 5.71173 16.6153 5.94933C16.4739 6.18694 16.271 6.38198 16.028 6.51386L14.981 7.08486L16.028 7.65686C16.271 7.78875 16.4739 7.98379 16.6153 8.22139C16.7567 8.459 16.8313 8.73037 16.8313 9.00686C16.8313 9.28336 16.7567 9.55472 16.6153 9.79233C16.4739 10.0299 16.271 10.225 16.028 10.3569L14.981 10.9279L16.028 11.4999C16.271 11.6317 16.4739 11.8268 16.6153 12.0644C16.7567 12.302 16.8313 12.5734 16.8313 12.8499C16.8313 13.1264 16.7567 13.3977 16.6153 13.6353C16.4739 13.8729 16.271 14.068 16.028 14.1999L9.553 17.7189C9.21457 17.9033 8.83542 18.0002 8.45 18.0009ZM3.523 11.7949L1.607 12.8399L8.082 16.3719C8.19472 16.4334 8.32108 16.4656 8.4495 16.4656C8.57792 16.4656 8.70428 16.4334 8.817 16.3719L15.293 12.8399L13.372 11.7949L9.553 13.8809C9.21463 14.0659 8.83516 14.1629 8.4495 14.1629C8.06384 14.1629 7.68437 14.0659 7.346 13.8809L3.523 11.7949ZM3.523 7.95686L1.607 9.00086L8.082 12.5329C8.19472 12.5944 8.32108 12.6266 8.4495 12.6266C8.57792 12.6266 8.70428 12.5944 8.817 12.5329L15.293 9.00086L13.372 7.95586L9.553 10.0409C9.21463 10.2259 8.83516 10.3229 8.4495 10.3229C8.06384 10.3229 7.68437 10.2259 7.346 10.0409L3.523 7.95686ZM8.45 1.53686C8.32141 1.53702 8.19491 1.56933 8.082 1.63086L1.607 5.16186L8.082 8.69386C8.19472 8.75539 8.32108 8.78764 8.4495 8.78764C8.57792 8.78764 8.70428 8.75539 8.817 8.69386L15.293 5.16186L8.817 1.62986C8.70445 1.56834 8.57827 1.53602 8.45 1.53586V1.53686Z" fill="#27AE60"/>
</svg>
