<svg width="13" height="18" viewBox="0 0 13 18" fill="none" xmlns="http://www.w3.org/2000/svg">
<path fill-rule="evenodd" clip-rule="evenodd" d="M3.48632 17.8359C3.70324 17.9428 3.94166 17.9989 4.18349 18C4.39755 17.9984 4.60879 17.951 4.80301 17.8609C4.99723 17.7709 5.16992 17.6403 5.30949 17.478L11.6665 10.322C11.83 10.1379 11.9468 9.9171 12.007 9.67834C12.0672 9.43958 12.0691 9.18983 12.0125 8.9502C11.956 8.71054 11.8426 8.48802 11.6819 8.30141C11.5212 8.11481 11.3181 7.96957 11.0895 7.87801L8.89649 7L10.2215 1.929C10.2846 1.70573 10.2946 1.47079 10.2507 1.24298C10.2067 1.01517 10.1101 0.800797 9.96849 0.617004C9.82043 0.425995 9.63085 0.271194 9.41411 0.164291C9.19737 0.0574036 8.95915 0.0012207 8.71749 0C8.50342 0.00161743 8.29218 0.0490417 8.09797 0.139084C7.90375 0.229111 7.73106 0.35968 7.59149 0.522003L1.23349 7.674C1.07001 7.85814 0.953226 8.0789 0.892999 8.31766C0.832771 8.55641 0.830866 8.80617 0.887444 9.04581C0.944022 9.28546 1.05742 9.50798 1.21808 9.69458C1.37873 9.8812 1.58191 10.0264 1.81049 10.118L4.00349 11L2.67849 16.071C2.6153 16.2943 2.60528 16.5292 2.64921 16.757C2.69314 16.9849 2.78982 17.1992 2.93149 17.383C3.07965 17.5741 3.26939 17.729 3.48632 17.8359Z" fill="#27AE60"/>
</svg>
